<svg xmlns="http://www.w3.org/2000/svg" width="22" height="20" viewBox="0 0 22 20">
  <path id="Path_110" data-name="Path 110" d="M230.451,156.4a2.141,2.141,0,0,1,.567-.456l.429.653c.133.2.323.186.422-.037l.856-2.44c.1-.224-.01-.39-.242-.37h-2.459c-.232.021-.314.2-.181.406l.427.649a3.535,3.535,0,0,0-.768.644,5.618,5.618,0,0,0-1.179,2.459h1.357A3.91,3.91,0,0,1,230.451,156.4Zm1.181,6.289H217.545l-.177,1.28h14.441Zm-8.449-7.572h.739V157.9h1.331v-2.789h.739c.233,0,.329-.174.212-.389l-1.4-2.137c-.117-.215-.308-.215-.426,0l-1.406,2.136C222.855,154.937,222.95,155.112,223.184,155.112Zm-5.877,1.442c.1.223.29.24.422.037l.422-.642a2.139,2.139,0,0,1,.564.452,3.861,3.861,0,0,1,.773,1.5h1.377a5.629,5.629,0,0,0-1.182-2.468,3.523,3.523,0,0,0-.77-.646l.419-.639c.133-.2.051-.385-.181-.406h-2.458c-.232-.02-.342.146-.242.37Zm-.376,10.58-.177,1.28h15.669l-.177-1.28Zm15.008-2.225h-14.7l-.177,1.28h15.054Zm3.619,3.2-1.011-7.328a1.828,1.828,0,0,0-1.743-1.594H216.372a1.829,1.829,0,0,0-1.743,1.594l-1.011,7.328a4.3,4.3,0,0,0,.232,1.933l.436,1.094a2.078,2.078,0,0,0,1.844,1.3h17.158a1.985,1.985,0,0,0,1.814-1.407l.314-1.048A5.024,5.024,0,0,0,235.558,168.105Zm-1.987,1.25-.3,1.013-.014.011h-17.1a.249.249,0,0,1-.087-.061l-.429-1.077a2.219,2.219,0,0,1-.1-.841l.989-7.17h16.131l.989,7.17A2.991,2.991,0,0,1,233.57,169.355Z" transform="translate(-213.59 -152.428)"/>
</svg>
