<svg xmlns="http://www.w3.org/2000/svg" width="22" height="21" viewBox="0 0 22 21">
  <path id="Path_115" data-name="Path 115" d="M41.162,293.047a11.639,11.639,0,0,1-3.636,3.334,8.315,8.315,0,0,1-3.96.775,8.316,8.316,0,0,1-3.96-.775,11.639,11.639,0,0,1-3.636-3.334c-1.87.7-3.2,1.72-3.2,3.082,0,2.97,6.313,4.3,10.8,4.3s10.795-1.335,10.795-4.3C44.361,294.768,43.032,293.75,41.162,293.047ZM31.11,286.108a.774.774,0,0,0,1.084.193.789.789,0,0,0,.192-1.092c-.511-.736-.391-.889-.038-1.344a2.16,2.16,0,0,0,.031-3.005.773.773,0,0,0-1.086-.178.788.788,0,0,0-.176,1.095c.419.587.356.669,0,1.121A2.323,2.323,0,0,0,31.11,286.108Zm3.571,0a.774.774,0,0,0,1.084.193.789.789,0,0,0,.191-1.092c-.723-1.042-.51-1.318-.041-1.922.53-.683,1.332-1.716.035-3.528a.774.774,0,0,0-1.086-.176.789.789,0,0,0-.176,1.095c.613.856.459,1.054,0,1.644C34.134,283.035,33.3,284.115,34.681,286.108Zm9.825.678a1.216,1.216,0,0,0-.9-.465c-.274-.022-1.142-.017-1.759-.01-.073-1.528-2.124-2.447-4.426-2.913a6.194,6.194,0,0,1-.482.7l-.081.106a3.052,3.052,0,0,0,.164.261,2.089,2.089,0,0,1,.336.8,5.343,5.343,0,0,1,2.664,1.135c-.354.559-3,1.549-6.453,1.549s-6.1-.99-6.453-1.549a4.567,4.567,0,0,1,2.214-1.023,3.323,3.323,0,0,1,.012-1.892c-2.187.5-4.06,1.421-4.06,2.915,0,.051,0,.2,0,.232a9.856,9.856,0,0,0,4.954,8.613,7.21,7.21,0,0,0,3.332.612,7.209,7.209,0,0,0,3.332-.612,10.111,10.111,0,0,0,3.129-2.827c3.4-.6,4.343-2.015,4.516-3.133.034-.221.069-.42.1-.6C44.787,287.834,44.883,287.276,44.506,286.786ZM42.75,289c-.073.472-.625.9-1.529,1.223a9.408,9.408,0,0,0,.535-2.077c.389,0,.808-.006,1.138-.008C42.88,288.213,42.786,288.764,42.75,289Z" transform="translate(-22.77 -279.434)"/>
</svg>
