<svg xmlns="http://www.w3.org/2000/svg" width="18.499" height="21" viewBox="0 0 18.499 21">
  <path id="Path_117" data-name="Path 117" d="M-68.748,94.463a6.46,6.46,0,0,0-.5-1.421c0-.014,0-.029,0-.044v-.786a1.092,1.092,0,0,0,.4-.432l1.256-2.647a.684.684,0,0,0-.323-.907s-4.762-2.265-8.234-2.265-8.233,2.265-8.233,2.265a.683.683,0,0,0-.323.907l1.255,2.647a1.092,1.092,0,0,0,.4.432V93a.439.439,0,0,0,0,.045,6.461,6.461,0,0,0-.5,1.42c-1.852.048-1.852,1.422-1.852,2.429,0,1.773.644,2.811,1.967,3.156,1.446,6.837,7.228,6.914,7.287,6.914s5.835-.079,7.279-6.914c1.321-.345,1.966-1.383,1.966-3.156C-66.9,95.884-66.9,94.51-68.748,94.463ZM-81,91.765a32.3,32.3,0,0,1,9.709-.009.6.6,0,0,1,.5.683.6.6,0,0,1-.683.5,31.071,31.071,0,0,0-9.348.01.665.665,0,0,1-.091.006.6.6,0,0,1-.593-.509A.6.6,0,0,1-81,91.765Zm11.345,6.717a.841.841,0,0,0-.754.7c-.989,5.983-5.542,6.1-5.727,6.1s-4.754-.116-5.745-6.1a.841.841,0,0,0-.754-.7c-.578-.052-1.078-.1-1.078-1.591a6.613,6.613,0,0,1,.024-.735,1.726,1.726,0,0,1,.247-.015h.6a.841.841,0,0,0,.833-.733,5.345,5.345,0,0,1,.237-1.034,11.234,11.234,0,0,0,5.623,1.563,11.234,11.234,0,0,0,5.623-1.563,5.365,5.365,0,0,1,.237,1.034.84.84,0,0,0,.833.733h.6a1.726,1.726,0,0,1,.247.015,6.477,6.477,0,0,1,.025.735C-68.576,98.386-69.076,98.431-69.655,98.482Z" transform="translate(85.394 -85.962)"/>
</svg>
