<svg xmlns="http://www.w3.org/2000/svg" width="40.822" height="36.707" viewBox="0 0 40.822 36.707">
  <g id="Group_1035" data-name="Group 1035" transform="translate(-0.001)">
    <line id="Line_263" data-name="Line 263" y1="1.712" transform="translate(20.069 3.056)" fill="none" stroke="#fff" stroke-miterlimit="10" stroke-width="1"/>
    <line id="Line_264" data-name="Line 264" y1="1.723" transform="translate(20.069 11.637)" fill="none" stroke="#fff" stroke-miterlimit="10" stroke-width="1"/>
    <g id="Group_1034" data-name="Group 1034">
      <g id="Group_1036" data-name="Group 1036">
        <path id="Path_5661" data-name="Path 5661" d="M20.069,8.2A1.809,1.809,0,0,1,21.957,9.92a1.9,1.9,0,0,1-3.776,0" fill="none" stroke="#fff" stroke-miterlimit="10" stroke-width="1"/>
        <path id="Path_5662" data-name="Path 5662" d="M20.069,8.2a1.809,1.809,0,0,1-1.888-1.717,1.9,1.9,0,0,1,3.776,0" fill="none" stroke="#fff" stroke-miterlimit="10" stroke-width="1"/>
        <path id="Path_5663" data-name="Path 5663" d="M11.575,19.918,8.467,17.225a1.739,1.739,0,0,1-.184-2.58,1.522,1.522,0,0,1,2.148-.153L12.6,16.376l1.406,1.219a6.62,6.62,0,0,1,2.5,1.186c.157.124.312.252.463.383A4.812,4.812,0,0,1,18.889,22.4s.019,9.086.009,14.3" fill="none" stroke="#fff" stroke-miterlimit="10" stroke-width="1"/>
        <path id="Path_5664" data-name="Path 5664" d="M8.468,17.225h0a30.941,30.941,0,0,1-2.281-2.418S3.642,10.615,3.118,8.2A1.667,1.667,0,0,0,1.211,6.905C.277,7.064.464,8.513.661,9.44l.023.144a30.469,30.469,0,0,0,3.341,9.159c1.348,2.089,3.488,3.98,6.161,7.563,1.568,2.1,1.43,10.393,1.43,10.393" fill="none" stroke="#fff" stroke-miterlimit="10" stroke-width="1"/>
        <path id="Path_5665" data-name="Path 5665" d="M29.249,19.918l3.107-2.693a1.738,1.738,0,0,0,.184-2.58,1.521,1.521,0,0,0-2.147-.153l-2.175,1.884-1.406,1.219a6.639,6.639,0,0,0-2.5,1.186q-.235.186-.462.383A4.807,4.807,0,0,0,21.935,22.4s-.036,9-.033,14.3" fill="none" stroke="#fff" stroke-miterlimit="10" stroke-width="1"/>
        <path id="Path_5666" data-name="Path 5666" d="M32.355,17.225h0a30.941,30.941,0,0,0,2.281-2.418s2.545-4.192,3.069-6.608a1.667,1.667,0,0,1,1.907-1.294c.933.159.747,1.608.55,2.535l-.023.144A30.469,30.469,0,0,1,36.8,18.743c-1.348,2.089-3.488,3.98-6.161,7.563-1.569,2.1-1.431,10.393-1.431,10.393" fill="none" stroke="#fff" stroke-miterlimit="10" stroke-width="1"/>
        <path id="Path_5667" data-name="Path 5667" d="M27.777,8.208A7.709,7.709,0,1,1,20.069.5,7.708,7.708,0,0,1,27.777,8.208Z" fill="none" stroke="#fff" stroke-miterlimit="10" stroke-width="1"/>
      </g>
    </g>
  </g>
</svg>
