<svg xmlns="http://www.w3.org/2000/svg" xmlns:xlink="http://www.w3.org/1999/xlink" width="39.678" height="37.332" viewBox="0 0 39.678 37.332">
  <defs>
    <clipPath id="clip-path">
      <rect id="Rectangle_1458" data-name="Rectangle 1458" width="39.678" height="37.332" transform="translate(0 0)" fill="none"/>
    </clipPath>
  </defs>
  <g id="Group_1051" data-name="Group 1051" transform="translate(0 0)">
    <path id="Path_5675" data-name="Path 5675" d="M26.011,5.429H22.762V2.18" fill="none" stroke="#fff" stroke-linecap="round" stroke-linejoin="round" stroke-width="1"/>
    <g id="Group_1046" data-name="Group 1046">
      <g id="Group_1045" data-name="Group 1045" clip-path="url(#clip-path)">
        <path id="Path_5676" data-name="Path 5676" d="M26.455,16.492V4.833L23.206,1.584H.5V36.831H26.455v-5.1" fill="none" stroke="#fff" stroke-linecap="round" stroke-linejoin="round" stroke-width="1"/>
      </g>
    </g>
    <line id="Line_270" data-name="Line 270" x1="15.901" transform="translate(5.024 24.255)" fill="none" stroke="#fff" stroke-linecap="round" stroke-linejoin="round" stroke-width="1"/>
    <line id="Line_271" data-name="Line 271" x1="16.907" transform="translate(5.024 21.006)" fill="none" stroke="#fff" stroke-linecap="round" stroke-linejoin="round" stroke-width="1"/>
    <line id="Line_272" data-name="Line 272" x1="14.987" transform="translate(5.024 27.504)" fill="none" stroke="#fff" stroke-linecap="round" stroke-linejoin="round" stroke-width="1"/>
    <line id="Line_273" data-name="Line 273" x1="16.907" transform="translate(5.024 17.756)" fill="none" stroke="#fff" stroke-linecap="round" stroke-linejoin="round" stroke-width="1"/>
    <line id="Line_274" data-name="Line 274" x1="16.907" transform="translate(5.024 14.507)" fill="none" stroke="#fff" stroke-linecap="round" stroke-linejoin="round" stroke-width="1"/>
    <line id="Line_275" data-name="Line 275" x1="8.454" transform="translate(5.024 11.257)" fill="none" stroke="#fff" stroke-linecap="round" stroke-linejoin="round" stroke-width="1"/>
    <path id="Path_5677" data-name="Path 5677" d="M37.576,3.354,34.62,2,22.759,27.942l-.816,5.215.181.083,3.591-3.947Z" fill="none" stroke="#fff" stroke-linecap="round" stroke-linejoin="round" stroke-width="1"/>
    <g id="Group_1048" data-name="Group 1048">
      <g id="Group_1047" data-name="Group 1047" clip-path="url(#clip-path)">
        <line id="Line_276" data-name="Line 276" y1="2.178" x2="0.995" transform="translate(36.098 0.5)" fill="none" stroke="#fff" stroke-linecap="round" stroke-linejoin="round" stroke-width="1"/>
      </g>
    </g>
    <line id="Line_277" data-name="Line 277" x2="2.955" y2="1.35" transform="translate(22.759 27.942)" fill="none" stroke="#fff" stroke-linecap="round" stroke-linejoin="round" stroke-width="1"/>
    <rect id="Rectangle_1460" data-name="Rectangle 1460" width="3.25" height="3.25" transform="translate(33.269 4.958) rotate(-65.438)" fill="none" stroke="#fff" stroke-linecap="round" stroke-linejoin="round" stroke-width="1"/>
    <rect id="Rectangle_1461" data-name="Rectangle 1461" width="3.249" height="3.25" transform="translate(24.11 24.986) rotate(-65.431)" fill="none" stroke="#fff" stroke-linecap="round" stroke-linejoin="round" stroke-width="1"/>
    <g id="Group_1050" data-name="Group 1050">
      <g id="Group_1052" data-name="Group 1052">
        <path id="Path_5678" data-name="Path 5678" d="M36.225,6.309l2.953,1.357-3.355,7.3" fill="none" stroke="#fff" stroke-linecap="round" stroke-linejoin="round" stroke-width="1"/>
        <path id="Path_5679" data-name="Path 5679" d="M10.717,32.073a1.848,1.848,0,0,1,2.913.041c.14.185.245.4.4.569a.738.738,0,0,0,.6.288c.5-.056.649-.782,1.121-.963a.924.924,0,0,1,.9.251c.247.215.437.491.7.688a1.575,1.575,0,0,0,1.992-.133" fill="none" stroke="#fff" stroke-linecap="round" stroke-linejoin="round" stroke-width="1"/>
      </g>
    </g>
  </g>
</svg>
