<svg xmlns="http://www.w3.org/2000/svg" width="39.015" height="37.013" viewBox="0 0 39.015 37.013">
  <g id="Group_1054" data-name="Group 1054" transform="translate(0.028)">
    <g id="Group_1055" data-name="Group 1055">
      <path id="Path_5680" data-name="Path 5680" d="M38.487,23.751v6.883a3.448,3.448,0,0,1-.793,2.227,18.631,18.631,0,0,1-4.667,3.652,18.649,18.649,0,0,1-4.667-3.652,3.448,3.448,0,0,1-.793-2.227V23.751l2.627-.726a10.642,10.642,0,0,1,5.666,0Z" fill="none" stroke="#fff" stroke-linecap="round" stroke-linejoin="round" stroke-width="1"/>
      <path id="Path_5681" data-name="Path 5681" d="M31.081,28.7,32.5,30.122l2.473-2.474" fill="none" stroke="#fff" stroke-linecap="round" stroke-linejoin="round" stroke-width="1"/>
      <path id="Path_5682" data-name="Path 5682" d="M13.005,7.342V6.553A1.225,1.225,0,0,1,14.23,5.328h4.158a4.264,4.264,0,0,0,4.264-4.263V.5H14.833a4.828,4.828,0,0,0-4.828,4.828v4.754H9.14v2.44c0,1.19.641,2.155,1.831,2.155,0,0,1.2,6.529,5.951,6.529h.531c4.749,0,5.951-6.529,5.951-6.529,1.19,0,1.815-.965,1.815-2.155v-2.44H24.37V4.333c0-1.321-.533-2.2-1.854-2.2" fill="none" stroke="#fff" stroke-linecap="round" stroke-linejoin="round" stroke-width="1"/>
      <path id="Path_5683" data-name="Path 5683" d="M25.191,24.449c-.8-.283-1.571-.533-2.249-.745a3.651,3.651,0,0,1-2.572-3.482" fill="none" stroke="#fff" stroke-linecap="round" stroke-linejoin="round" stroke-width="1"/>
      <path id="Path_5684" data-name="Path 5684" d="M14.005,20.222h0A3.65,3.65,0,0,1,11.432,23.7a39.826,39.826,0,0,0-7.7,3.145,6.056,6.056,0,0,0-3.219,5.6v3.657" fill="none" stroke="#fff" stroke-linecap="round" stroke-linejoin="round" stroke-width="1"/>
      <path id="Path_5685" data-name="Path 5685" d="M13.374,22.263l3.813,4.2-2.735,2.621-4.016-5.062" fill="none" stroke="#fff" stroke-linecap="round" stroke-linejoin="round" stroke-width="1"/>
      <path id="Path_5686" data-name="Path 5686" d="M21,22.262l-3.814,4.2,2.735,2.621,4.017-5.061" fill="none" stroke="#fff" stroke-linecap="round" stroke-linejoin="round" stroke-width="1"/>
      <path id="Path_5687" data-name="Path 5687" d="M15.339,28.236l.968,1.341a1.084,1.084,0,0,0,1.759,0l.969-1.341-1.847-1.772Z" fill="none" stroke="#fff" stroke-linecap="round" stroke-linejoin="round" stroke-width="1"/>
      <line id="Line_278" data-name="Line 278" x1="1.368" y2="6.531" transform="translate(14.94 29.577)" fill="none" stroke="#fff" stroke-linecap="round" stroke-linejoin="round" stroke-width="1"/>
      <line id="Line_279" data-name="Line 279" x2="1.368" y2="6.531" transform="translate(18.067 29.577)" fill="none" stroke="#fff" stroke-linecap="round" stroke-linejoin="round" stroke-width="1"/>
      <line id="Line_280" data-name="Line 280" y1="3.265" transform="translate(5.333 32.843)" fill="none" stroke="#fff" stroke-linecap="round" stroke-linejoin="round" stroke-width="1"/>
    </g>
  </g>
</svg>
