<svg xmlns="http://www.w3.org/2000/svg" width="15.971" height="20" viewBox="0 0 15.971 20">
  <path id="Path_114" data-name="Path 114" d="M43.269,94.4l-.882-1.44-.829,2.968a.313.313,0,0,0-.079.057l-1.068,1.03a.369.369,0,0,1-.507,0l-1.068-1.03a.37.37,0,0,0-.508,0L37.252,97.02a.371.371,0,0,1-.509,0l-1.068-1.03a.371.371,0,0,0-.509,0L34.09,97.02a.372.372,0,0,1-.509,0l-1.076-1.032a.37.37,0,0,0-.508,0l-1.069,1.03a.369.369,0,0,1-.507,0l-.988-.953,0-4.135a.992.992,0,0,0-.595.442L27.592,94.4a1,1,0,0,0-.147.52v11.512a1.415,1.415,0,0,0,1.411,1.41H41.978a1.414,1.414,0,0,0,1.41-1.41v-.651a2.371,2.371,0,0,0,.028-.345V94.925A.992.992,0,0,0,43.269,94.4Zm-12.136.689a1.6,1.6,0,0,1,2.233,0l.424.407,1.472-5.274H31.027a.353.353,0,0,0-.352.352v4.6a.35.35,0,0,0,.11.254Zm5.406,0,.46.444.467-.447a1.6,1.6,0,0,1,2.233,0l.631.609,1.219-4.367a2.568,2.568,0,1,0-4.923-1.374L35.32,94.645A1.6,1.6,0,0,1,36.539,95.094Zm1.286-4.8a1.81,1.81,0,0,1,.2-.465l2.251.008A1.724,1.724,0,0,1,40.351,91l-.023.083-2.721-.01Zm-.5,1.8,2.721.009L39.7,93.344l-2.721-.009Z" transform="translate(-27.445 -87.847)"/>
</svg>
