<svg xmlns="http://www.w3.org/2000/svg" width="18.751" height="21" viewBox="0 0 18.751 21">
  <path id="Path_118" data-name="Path 118" d="M-65.6,280.31a8.7,8.7,0,0,0-.708-.65l.12-1.053a1.221,1.221,0,0,0-.856-1.286,16.732,16.732,0,0,0-9.772,0,1.221,1.221,0,0,0-.854,1.285l.12,1.054a8.79,8.79,0,0,0-.708.65c-2.256,2.313-3.267,5.859-3.005,10.539a.581.581,0,0,0,.215.419,7.619,7.619,0,0,0,2.513,1.169,8.278,8.278,0,0,0,1.825,2.977,7.179,7.179,0,0,0,4.786,2.177h0a7.165,7.165,0,0,0,4.778-2.174,8.265,8.265,0,0,0,1.825-2.981,7.613,7.613,0,0,0,2.512-1.169.581.581,0,0,0,.214-.419C-62.335,286.169-63.346,282.623-65.6,280.31Zm-2.242-1.531-.315,2.768a16.8,16.8,0,0,0-3.42-.426c-.2,0-.507,0-.7,0a16.815,16.815,0,0,0-3.422.426l-.315-2.768A15.1,15.1,0,0,1-67.845,278.779Zm-.447,15.485a5.619,5.619,0,0,1-3.631,1.7,5.631,5.631,0,0,1-3.648-1.707c-1.475-1.534-2.174-3.944-2.079-7.164a5.417,5.417,0,0,1,.477-2.156c1.859,1.015,5.79.878,6.963-.732a4.511,4.511,0,0,0,3.8,1.488,6.015,6.015,0,0,1,.2,1.4C-66.118,290.319-66.817,292.73-68.292,294.264Z" transform="translate(81.307 -276.592)"/>
</svg>
