<svg xmlns="http://www.w3.org/2000/svg" width="22" height="16.725" viewBox="0 0 22 16.725">
  <path id="Path_116" data-name="Path 116" d="M41.443,89.843a.876.876,0,0,0-.826-.919.784.784,0,0,0-.611.307s-3.668,4.494-1.379,9.777l-.339,4.972a1.6,1.6,0,0,0,0,.181,1.579,1.579,0,0,0,3.152-.182ZM25.1,93.5V89.642a.3.3,0,0,0-.3-.3h-.593a.3.3,0,0,0-.3.3v3.683H22.867V89.642a.3.3,0,0,0-.3-.3h-.594a.3.3,0,0,0-.3.3v3.683H20.632V89.642a.3.3,0,0,0-.3-.3h-.594a.3.3,0,0,0-.3.3V93.5a2.83,2.83,0,0,0,1.706,2.6L20.7,103.98a1.6,1.6,0,0,0,0,.181,1.579,1.579,0,0,0,3.152-.182L23.395,96.1A2.83,2.83,0,0,0,25.1,93.5Zm5.993.73a3.056,3.056,0,1,0,3.056,3.057A3.06,3.06,0,0,0,31.095,94.23Zm6.259-2.3a8.223,8.223,0,0,0-11.147-1.278V93.5a3.932,3.932,0,0,1-1.67,3.217l.344,5.973a8.224,8.224,0,0,0,12.384.05l.242-3.547A10.256,10.256,0,0,1,37.354,91.935Zm-6.259,9.734a4.382,4.382,0,1,1,4.382-4.382A4.387,4.387,0,0,1,31.095,101.668Z" transform="translate(-19.443 -88.924)"/>
</svg>
