<svg id="Group_951" data-name="Group 951" xmlns="http://www.w3.org/2000/svg" xmlns:xlink="http://www.w3.org/1999/xlink" width="86.754" height="63.948" viewBox="0 0 86.754 63.948">
  <defs>
    <clipPath id="clip-path">
      <rect id="Rectangle_1387" data-name="Rectangle 1387" width="86.754" height="63.948" fill="none"/>
    </clipPath>
  </defs>
  <path id="Path_5565" data-name="Path 5565" d="M145.5,0,115.35,17v1.607l30.149-17,30.149,17.1V17.1Z" transform="translate(-88.968 0)" fill="#4b858e"/>
  <path id="Path_5566" data-name="Path 5566" d="M57.686,17.37v1.607L87.591,2.087V.478Z" transform="translate(-44.492 -0.369)" fill="#4b858e"/>
  <path id="Path_5567" data-name="Path 5567" d="M.021,17.37v1.607L29.926,2.087V.478Z" transform="translate(-0.016 -0.369)" fill="#4b858e"/>
  <g id="Group_952" data-name="Group 952">
    <g id="Group_951-2" data-name="Group 951" clip-path="url(#clip-path)">
      <path id="Path_5568" data-name="Path 5568" d="M0,101.609a2.382,2.382,0,0,0,.421,1.506,2.239,2.239,0,0,0,1.242.749,8.782,8.782,0,0,0,2.148.214H27.738V88.669H26.382v14.2H12.639V97.114l-.514-.057a18.117,18.117,0,0,0-2.012-.1,5.361,5.361,0,0,0-2.084.328,2.038,2.038,0,0,0-1.092,1.106,5.7,5.7,0,0,0-.336,2.191,6.026,6.026,0,0,0,.328,2.284H3.739a3.822,3.822,0,0,1-1.977-.364,1.322,1.322,0,0,1-.55-1.192V98.5L0,98.963Zm11.283,1.256H8.414a2.6,2.6,0,0,1-.342-.785,5.683,5.683,0,0,1-.129-1.4,5.31,5.31,0,0,1,.171-1.527,1.3,1.3,0,0,1,.614-.785,2.764,2.764,0,0,1,1.3-.243q.357,0,1.256.071Z" transform="translate(0 -68.389)" fill="#1d252c"/>
      <path id="Path_5569" data-name="Path 5569" d="M133.49,120.561v-8.948h-1.356v10.162h52.52V111.613H183.3v8.948h-7.45v-5.923h-1.356v5.923h-7.279v-3.653a2.341,2.341,0,0,0-.642-1.863,2.638,2.638,0,0,0-1.77-.549l-4.446.476-.009,1.208c1.55-.152,3.708-.362,4.127-.362a1.224,1.224,0,0,1,1.4,1.37v3.374H134.846" transform="translate(-101.913 -86.085)" fill="#1d252c"/>
      <path id="Path_5570" data-name="Path 5570" d="M5.956,185.6H1.976l-.616,2.3H0l2.549-9.819H5.383l2.548,9.819H6.572Zm-3.694-1.213H5.67l-1.331-5.152H3.594Z" transform="translate(0 -137.347)" fill="#1d252c"/>
      <path id="Path_5571" data-name="Path 5571" d="M53.456,186.681v1.213H47.986v-9.819h1.374v8.606Z" transform="translate(-37.011 -137.347)" fill="#1d252c"/>
      <path id="Path_5572" data-name="Path 5572" d="M98.465,179.289H95.559v-1.213h7.158v1.213H99.84v8.606H98.465Z" transform="translate(-73.703 -137.347)" fill="#1d252c"/>
      <path id="Path_5573" data-name="Path 5573" d="M138.321,185.6h-3.98l-.616,2.3h-1.36l2.549-9.819h2.835l2.548,9.819h-1.36Zm-3.694-1.213h3.407l-1.331-5.152h-.745Z" transform="translate(-102.091 -137.347)" fill="#1d252c"/>
      <path id="Path_5574" data-name="Path 5574" d="M186.894,178.076v9.819h-1.36V183.57h-4.6v4.324h-1.374v-9.819h1.374v4.282h4.6v-4.282Z" transform="translate(-138.495 -137.347)" fill="#1d252c"/>
      <path id="Path_5575" data-name="Path 5575" d="M230.088,185.6h-3.98l-.615,2.3h-1.36l2.548-9.819h2.835l2.548,9.819H230.7Zm-3.694-1.213H229.8l-1.331-5.152h-.744Z" transform="translate(-172.87 -137.347)" fill="#1d252c"/>
      <path id="Path_5576" data-name="Path 5576" d="M276.8,186.681v1.213H271.33v-9.819H272.7v8.606Z" transform="translate(-209.273 -137.347)" fill="#1d252c"/>
      <path id="Path_5577" data-name="Path 5577" d="M307.007,187.274a3.138,3.138,0,0,1-.873-2.462v-6.736h1.375v6.765q0,2,2.133,2a2.464,2.464,0,0,0,1.668-.485,1.913,1.913,0,0,0,.551-1.513v-6.765h1.36v6.736a3.124,3.124,0,0,1-.88,2.462,4.96,4.96,0,0,1-5.333,0" transform="translate(-236.117 -137.347)" fill="#1d252c"/>
      <path id="Path_5578" data-name="Path 5578" d="M354.394,179.274v3.54h3.88v1.2h-3.88v3.882h-1.374v-9.819h6.013v1.2Z" transform="translate(-272.279 -137.347)" fill="#1d252c"/>
      <path id="Path_5579" data-name="Path 5579" d="M115.35,85.865v15.46h1.356V85.1Z" transform="translate(-88.967 -65.636)" fill="#1d252c"/>
      <path id="Path_5580" data-name="Path 5580" d="M373.061,101.642h1.356V86.281l-1.356-.77Z" transform="translate(-287.736 -65.953)" fill="#1d252c"/>
      <rect id="Rectangle_1384" data-name="Rectangle 1384" width="1.407" height="1.407" transform="translate(73.659 26.509) rotate(-45)" fill="#4b858e"/>
      <rect id="Rectangle_1385" data-name="Rectangle 1385" width="1.407" height="1.407" transform="translate(71.055 26.509) rotate(-45)" fill="#4b858e"/>
      <rect id="Rectangle_1386" data-name="Rectangle 1386" width="1.407" height="1.407" transform="translate(9.257 26.509) rotate(-45)" fill="#4b858e"/>
      <path id="Path_5581" data-name="Path 5581" d="M.462,265.012H1.654a1.075,1.075,0,0,1,.76.234.963.963,0,0,1,.249.731q0,.814-.658.961l.705,1.372H2.445l-.686-1.33H.7v1.33H.462Zm1.2,1.751A.674.674,0,0,0,2.416,266a.79.79,0,0,0-.187-.579.783.783,0,0,0-.575-.187H.7v1.533Z" transform="translate(-0.356 -204.4)" fill="#808380"/>
      <path id="Path_5582" data-name="Path 5582" d="M39.865,265.225v1.3H41.3v.213H39.865V268.1h1.718v.213H39.628v-3.3h1.954v.213Z" transform="translate(-30.565 -204.4)" fill="#808380"/>
      <path id="Path_5583" data-name="Path 5583" d="M78.263,267.355H76.745l-.284.956h-.232l.975-3.3h.6l.975,3.3h-.232Zm-.634-2.13h-.246l-.578,1.907h1.4Z" transform="translate(-58.794 -204.4)" fill="#808380"/>
      <path id="Path_5584" data-name="Path 5584" d="M118.053,268.092v.218h-1.789v-3.3h.236v3.081Z" transform="translate(-89.673 -204.4)" fill="#808380"/>
      <path id="Path_5585" data-name="Path 5585" d="M183.95,265.225v1.3h1.434v.213H183.95V268.1h1.718v.213h-1.954v-3.3h1.954v.213Z" transform="translate(-141.696 -204.4)" fill="#808380"/>
      <path id="Path_5586" data-name="Path 5586" d="M220.964,268.107l-.17-.019.024-.218a8.284,8.284,0,0,0,.984.085.684.684,0,0,0,.786-.762.7.7,0,0,0-.062-.324.45.45,0,0,0-.229-.189,2.289,2.289,0,0,0-.5-.13,2.827,2.827,0,0,1-.613-.166.643.643,0,0,1-.315-.27.981.981,0,0,1-.1-.483.781.781,0,0,1,.253-.637,1.212,1.212,0,0,1,.783-.21,7.03,7.03,0,0,1,.956.08l-.024.218q-.672-.08-.928-.08-.795,0-.795.615a.855.855,0,0,0,.059.364.423.423,0,0,0,.234.189,3.539,3.539,0,0,0,.577.151,2.425,2.425,0,0,1,.559.159.626.626,0,0,1,.291.253.876.876,0,0,1,.092.435,1.031,1.031,0,0,1-.246.757,1.052,1.052,0,0,1-.771.246,7.18,7.18,0,0,1-.847-.066" transform="translate(-170.277 -204.225)" fill="#808380"/>
      <path id="Path_5587" data-name="Path 5587" d="M258.668,265.23H257.6v-.217h2.366v.217H258.9v3.081h-.236Z" transform="translate(-198.682 -204.4)" fill="#808380"/>
      <path id="Path_5588" data-name="Path 5588" d="M296.214,267.355h-1.519l-.284.956h-.232l.975-3.3h.6l.975,3.3H296.5Zm-.634-2.13h-.246l-.578,1.907h1.4Z" transform="translate(-226.896 -204.4)" fill="#808380"/>
      <path id="Path_5589" data-name="Path 5589" d="M332.635,265.23h-1.07v-.217h2.366v.217h-1.06v3.081h-.237Z" transform="translate(-255.731 -204.4)" fill="#808380"/>
      <path id="Path_5590" data-name="Path 5590" d="M370.741,265.225v1.3h1.434v.213h-1.434V268.1h1.718v.213H370.5v-3.3h1.954v.213Z" transform="translate(-285.765 -204.4)" fill="#808380"/>
    </g>
  </g>
</svg>
